<svg id="facebook_icon" data-name="facebook icon" xmlns="http://www.w3.org/2000/svg" width="24.273" height="24.273" viewBox="0 0 24.273 24.273">
  <path id="Path_969" data-name="Path 969" d="M435.425,894.934A12.137,12.137,0,1,1,447.561,882.8,12.15,12.15,0,0,1,435.425,894.934Zm0-22.447a10.31,10.31,0,1,0,10.31,10.31A10.322,10.322,0,0,0,435.425,872.488Z" transform="translate(-423.288 -870.661)" fill="#1a1818"/>
  <path id="Path_970" data-name="Path 970" d="M504.49,927.672h-1.667v-1.109c.122-1.048,1.853-.849,1.853-.849v-1.8h0c-.059-.014-3.443-.817-4.115,1.758a0,0,0,0,1,0,0l0,.017a13.066,13.066,0,0,0-.1,1.982h-1.445v1.972h1.534v5.363h2.234v-5.363h1.709l.193-1.972Z" transform="translate(-489.71 -917.258)" fill="#1a1818" fill-rule="evenodd"/>
</svg>
